<mxfile host="app.diagrams.net" modified="2023-05-06T08:51:39.728Z" agent="Mozilla/5.0 (Windows NT 10.0; Win64; x64) AppleWebKit/537.36 (KHTML, like Gecko) Chrome/112.0.0.0 Safari/537.36" etag="ULNIB2PtyP-B5K8AQ349" version="21.2.3" type="device">
  <diagram name="Page-1" id="ztnuq1gAnb1mRWDwHI2R">
    <mxGraphModel dx="1120" dy="1552" grid="1" gridSize="10" guides="1" tooltips="1" connect="1" arrows="1" fold="1" page="1" pageScale="1" pageWidth="850" pageHeight="1100" math="0" shadow="0">
      <root>
        <mxCell id="0" />
        <mxCell id="1" parent="0" />
        <mxCell id="4vqRBLgqxBnJ8twM-hPz-1" value="Actor" style="shape=umlActor;verticalLabelPosition=bottom;verticalAlign=top;html=1;outlineConnect=0;" parent="1" vertex="1">
          <mxGeometry x="50" y="320" width="30" height="60" as="geometry" />
        </mxCell>
        <mxCell id="4vqRBLgqxBnJ8twM-hPz-2" value="Admin" style="shape=umlActor;verticalLabelPosition=bottom;verticalAlign=top;html=1;outlineConnect=0;" parent="1" vertex="1">
          <mxGeometry x="880" y="290" width="30" height="60" as="geometry" />
        </mxCell>
        <mxCell id="4vqRBLgqxBnJ8twM-hPz-3" value="Login" style="ellipse;whiteSpace=wrap;html=1;" parent="1" vertex="1">
          <mxGeometry x="220" y="40" width="120" height="80" as="geometry" />
        </mxCell>
        <mxCell id="4vqRBLgqxBnJ8twM-hPz-4" value="Allow profile access" style="ellipse;whiteSpace=wrap;html=1;" parent="1" vertex="1">
          <mxGeometry x="230" y="180" width="120" height="80" as="geometry" />
        </mxCell>
        <mxCell id="4vqRBLgqxBnJ8twM-hPz-5" value="Show recommended music" style="ellipse;whiteSpace=wrap;html=1;" parent="1" vertex="1">
          <mxGeometry x="190" y="580" width="170" height="80" as="geometry" />
        </mxCell>
        <mxCell id="4vqRBLgqxBnJ8twM-hPz-6" value="Feedback&amp;nbsp;" style="ellipse;whiteSpace=wrap;html=1;" parent="1" vertex="1">
          <mxGeometry x="220" y="290" width="150" height="80" as="geometry" />
        </mxCell>
        <mxCell id="4vqRBLgqxBnJ8twM-hPz-7" value="Load and update database" style="ellipse;whiteSpace=wrap;html=1;" parent="1" vertex="1">
          <mxGeometry x="650" y="20" width="120" height="80" as="geometry" />
        </mxCell>
        <mxCell id="4vqRBLgqxBnJ8twM-hPz-9" value="Verify Model" style="ellipse;whiteSpace=wrap;html=1;" parent="1" vertex="1">
          <mxGeometry x="660" y="290" width="120" height="80" as="geometry" />
        </mxCell>
        <mxCell id="4vqRBLgqxBnJ8twM-hPz-10" value="Calculate Performance&amp;nbsp; Metrics" style="ellipse;whiteSpace=wrap;html=1;" parent="1" vertex="1">
          <mxGeometry x="640" y="600" width="150" height="80" as="geometry" />
        </mxCell>
        <mxCell id="4vqRBLgqxBnJ8twM-hPz-20" value="&lt;font style=&quot;font-size: 24px;&quot;&gt;UML Use Case Diagram&lt;/font&gt;" style="text;html=1;align=center;verticalAlign=middle;resizable=0;points=[];autosize=1;strokeColor=none;fillColor=none;" parent="1" vertex="1">
          <mxGeometry x="365" y="-40" width="280" height="40" as="geometry" />
        </mxCell>
        <mxCell id="4vqRBLgqxBnJ8twM-hPz-21" value="By : Biswanth, Asvad and Vamshi" style="text;html=1;align=center;verticalAlign=middle;resizable=0;points=[];autosize=1;strokeColor=none;fillColor=none;" parent="1" vertex="1">
          <mxGeometry x="640" y="740" width="200" height="30" as="geometry" />
        </mxCell>
        <mxCell id="uR6mbqUO0TgPEEzMGg1f-3" value="" style="endArrow=classic;html=1;rounded=0;entryX=0;entryY=1;entryDx=0;entryDy=0;" parent="1" target="4vqRBLgqxBnJ8twM-hPz-3" edge="1">
          <mxGeometry width="50" height="50" relative="1" as="geometry">
            <mxPoint x="100" y="310" as="sourcePoint" />
            <mxPoint x="250" y="214" as="targetPoint" />
          </mxGeometry>
        </mxCell>
        <mxCell id="uR6mbqUO0TgPEEzMGg1f-4" value="" style="endArrow=classic;html=1;rounded=0;entryX=0;entryY=0.5;entryDx=0;entryDy=0;" parent="1" target="4vqRBLgqxBnJ8twM-hPz-4" edge="1">
          <mxGeometry width="50" height="50" relative="1" as="geometry">
            <mxPoint x="100" y="340" as="sourcePoint" />
            <mxPoint x="228" y="220" as="targetPoint" />
          </mxGeometry>
        </mxCell>
        <mxCell id="uR6mbqUO0TgPEEzMGg1f-5" value="" style="endArrow=classic;html=1;rounded=0;" parent="1" edge="1" source="4vqRBLgqxBnJ8twM-hPz-5">
          <mxGeometry width="50" height="50" relative="1" as="geometry">
            <mxPoint x="100" y="390" as="sourcePoint" />
            <mxPoint x="80" y="410" as="targetPoint" />
          </mxGeometry>
        </mxCell>
        <mxCell id="uR6mbqUO0TgPEEzMGg1f-7" value="" style="endArrow=classic;html=1;rounded=0;" parent="1" target="4vqRBLgqxBnJ8twM-hPz-10" edge="1">
          <mxGeometry width="50" height="50" relative="1" as="geometry">
            <mxPoint x="860" y="390" as="sourcePoint" />
            <mxPoint x="690" y="430" as="targetPoint" />
          </mxGeometry>
        </mxCell>
        <mxCell id="uR6mbqUO0TgPEEzMGg1f-8" value="" style="endArrow=classic;html=1;rounded=0;entryX=1;entryY=0.5;entryDx=0;entryDy=0;" parent="1" target="4vqRBLgqxBnJ8twM-hPz-9" edge="1">
          <mxGeometry width="50" height="50" relative="1" as="geometry">
            <mxPoint x="870" y="330" as="sourcePoint" />
            <mxPoint x="700" y="410" as="targetPoint" />
          </mxGeometry>
        </mxCell>
        <mxCell id="uR6mbqUO0TgPEEzMGg1f-10" value="" style="endArrow=classic;html=1;rounded=0;entryX=0.983;entryY=0.638;entryDx=0;entryDy=0;entryPerimeter=0;" parent="1" target="4vqRBLgqxBnJ8twM-hPz-7" edge="1">
          <mxGeometry width="50" height="50" relative="1" as="geometry">
            <mxPoint x="870" y="290" as="sourcePoint" />
            <mxPoint x="740" y="138" as="targetPoint" />
          </mxGeometry>
        </mxCell>
        <mxCell id="vRQ700bo3YF1591QnHRF-2" value="Select Mood" style="ellipse;whiteSpace=wrap;html=1;" vertex="1" parent="1">
          <mxGeometry x="180" y="390" width="145" height="80" as="geometry" />
        </mxCell>
        <mxCell id="vRQ700bo3YF1591QnHRF-3" value="" style="endArrow=classic;html=1;rounded=0;entryX=0;entryY=0.5;entryDx=0;entryDy=0;" edge="1" parent="1" target="vRQ700bo3YF1591QnHRF-2">
          <mxGeometry width="50" height="50" relative="1" as="geometry">
            <mxPoint x="100" y="390" as="sourcePoint" />
            <mxPoint x="220" y="290" as="targetPoint" />
          </mxGeometry>
        </mxCell>
        <mxCell id="vRQ700bo3YF1591QnHRF-4" value="Recommend Music" style="ellipse;whiteSpace=wrap;html=1;" vertex="1" parent="1">
          <mxGeometry x="410" y="670" width="150" height="50" as="geometry" />
        </mxCell>
        <mxCell id="vRQ700bo3YF1591QnHRF-5" value="Predict Mood" style="ellipse;whiteSpace=wrap;html=1;" vertex="1" parent="1">
          <mxGeometry x="470" y="500" width="150" height="50" as="geometry" />
        </mxCell>
        <mxCell id="vRQ700bo3YF1591QnHRF-6" value="Create model" style="ellipse;whiteSpace=wrap;html=1;" vertex="1" parent="1">
          <mxGeometry x="470" y="390" width="150" height="50" as="geometry" />
        </mxCell>
        <mxCell id="vRQ700bo3YF1591QnHRF-7" value="Process and analyse data" style="ellipse;whiteSpace=wrap;html=1;" vertex="1" parent="1">
          <mxGeometry x="455" y="250" width="165" height="70" as="geometry" />
        </mxCell>
        <mxCell id="vRQ700bo3YF1591QnHRF-8" value="Obtain data from Database and user Profile" style="ellipse;whiteSpace=wrap;html=1;" vertex="1" parent="1">
          <mxGeometry x="450" y="110" width="165" height="70" as="geometry" />
        </mxCell>
        <mxCell id="vRQ700bo3YF1591QnHRF-9" value="" style="endArrow=classic;html=1;rounded=0;entryX=0;entryY=0.5;entryDx=0;entryDy=0;" edge="1" parent="1" target="4vqRBLgqxBnJ8twM-hPz-6">
          <mxGeometry width="50" height="50" relative="1" as="geometry">
            <mxPoint x="100" y="360" as="sourcePoint" />
            <mxPoint x="180" y="600" as="targetPoint" />
          </mxGeometry>
        </mxCell>
        <mxCell id="vRQ700bo3YF1591QnHRF-12" value="" style="endArrow=block;dashed=1;endFill=0;endSize=12;html=1;rounded=0;exitX=0.5;exitY=1;exitDx=0;exitDy=0;" edge="1" parent="1" source="4vqRBLgqxBnJ8twM-hPz-5" target="vRQ700bo3YF1591QnHRF-4">
          <mxGeometry width="160" relative="1" as="geometry">
            <mxPoint x="280" y="620" as="sourcePoint" />
            <mxPoint x="400" y="650" as="targetPoint" />
            <Array as="points">
              <mxPoint x="280" y="660" />
            </Array>
          </mxGeometry>
        </mxCell>
        <mxCell id="vRQ700bo3YF1591QnHRF-13" value="" style="endArrow=block;dashed=1;endFill=0;endSize=12;html=1;rounded=0;exitX=1;exitY=0;exitDx=0;exitDy=0;entryX=0.5;entryY=1;entryDx=0;entryDy=0;" edge="1" parent="1" source="vRQ700bo3YF1591QnHRF-4" target="vRQ700bo3YF1591QnHRF-5">
          <mxGeometry width="160" relative="1" as="geometry">
            <mxPoint x="410" y="550" as="sourcePoint" />
            <mxPoint x="576" y="625" as="targetPoint" />
          </mxGeometry>
        </mxCell>
        <mxCell id="vRQ700bo3YF1591QnHRF-14" value="" style="endArrow=block;dashed=1;endFill=0;endSize=12;html=1;rounded=0;exitX=0.566;exitY=1.025;exitDx=0;exitDy=0;exitPerimeter=0;entryX=0;entryY=0.5;entryDx=0;entryDy=0;" edge="1" parent="1" source="vRQ700bo3YF1591QnHRF-2" target="vRQ700bo3YF1591QnHRF-5">
          <mxGeometry width="160" relative="1" as="geometry">
            <mxPoint x="309" y="440" as="sourcePoint" />
            <mxPoint x="475" y="515" as="targetPoint" />
            <Array as="points">
              <mxPoint x="262" y="525" />
            </Array>
          </mxGeometry>
        </mxCell>
        <mxCell id="vRQ700bo3YF1591QnHRF-15" value="" style="endArrow=block;dashed=1;endFill=0;endSize=12;html=1;rounded=0;entryX=0.5;entryY=1;entryDx=0;entryDy=0;" edge="1" parent="1">
          <mxGeometry width="160" relative="1" as="geometry">
            <mxPoint x="541" y="500" as="sourcePoint" />
            <mxPoint x="541" y="440" as="targetPoint" />
          </mxGeometry>
        </mxCell>
        <mxCell id="vRQ700bo3YF1591QnHRF-16" value="" style="endArrow=block;dashed=1;endFill=0;endSize=12;html=1;rounded=0;entryX=0.5;entryY=1;entryDx=0;entryDy=0;exitX=0.447;exitY=0.06;exitDx=0;exitDy=0;exitPerimeter=0;" edge="1" parent="1">
          <mxGeometry width="160" relative="1" as="geometry">
            <mxPoint x="537.05" y="392" as="sourcePoint" />
            <mxPoint x="537" y="319" as="targetPoint" />
          </mxGeometry>
        </mxCell>
        <mxCell id="vRQ700bo3YF1591QnHRF-17" value="" style="endArrow=block;dashed=1;endFill=0;endSize=12;html=1;rounded=0;entryX=0.5;entryY=1;entryDx=0;entryDy=0;exitX=0.447;exitY=0.06;exitDx=0;exitDy=0;exitPerimeter=0;" edge="1" parent="1">
          <mxGeometry width="160" relative="1" as="geometry">
            <mxPoint x="532.05" y="250" as="sourcePoint" />
            <mxPoint x="532" y="177" as="targetPoint" />
          </mxGeometry>
        </mxCell>
        <mxCell id="vRQ700bo3YF1591QnHRF-18" value="" style="endArrow=block;dashed=1;endFill=0;endSize=12;html=1;rounded=0;entryX=0.933;entryY=0.288;entryDx=0;entryDy=0;exitX=0;exitY=0.5;exitDx=0;exitDy=0;entryPerimeter=0;" edge="1" parent="1" source="vRQ700bo3YF1591QnHRF-8" target="4vqRBLgqxBnJ8twM-hPz-4">
          <mxGeometry width="160" relative="1" as="geometry">
            <mxPoint x="350" y="100" as="sourcePoint" />
            <mxPoint x="390" y="250" as="targetPoint" />
            <Array as="points">
              <mxPoint x="350" y="145" />
            </Array>
          </mxGeometry>
        </mxCell>
        <mxCell id="vRQ700bo3YF1591QnHRF-19" value="" style="endArrow=block;dashed=1;endFill=0;endSize=12;html=1;rounded=0;entryX=0.5;entryY=1;entryDx=0;entryDy=0;exitX=0.994;exitY=0.414;exitDx=0;exitDy=0;exitPerimeter=0;" edge="1" parent="1" source="vRQ700bo3YF1591QnHRF-8">
          <mxGeometry width="160" relative="1" as="geometry">
            <mxPoint x="620" y="140" as="sourcePoint" />
            <mxPoint x="709.5" y="100" as="targetPoint" />
            <Array as="points">
              <mxPoint x="710" y="140" />
            </Array>
          </mxGeometry>
        </mxCell>
        <mxCell id="vRQ700bo3YF1591QnHRF-20" value="" style="endArrow=block;dashed=1;endFill=0;endSize=12;html=1;rounded=0;entryX=0.5;entryY=1;entryDx=0;entryDy=0;" edge="1" parent="1">
          <mxGeometry width="160" relative="1" as="geometry">
            <mxPoint x="619" y="407" as="sourcePoint" />
            <mxPoint x="698.5" y="367" as="targetPoint" />
            <Array as="points">
              <mxPoint x="699" y="407" />
            </Array>
          </mxGeometry>
        </mxCell>
        <mxCell id="vRQ700bo3YF1591QnHRF-21" value="" style="endArrow=block;dashed=1;endFill=0;endSize=12;html=1;rounded=0;exitX=0.6;exitY=1.038;exitDx=0;exitDy=0;exitPerimeter=0;" edge="1" parent="1" source="4vqRBLgqxBnJ8twM-hPz-9">
          <mxGeometry width="160" relative="1" as="geometry">
            <mxPoint x="710" y="430" as="sourcePoint" />
            <mxPoint x="681" y="605" as="targetPoint" />
            <Array as="points">
              <mxPoint x="730" y="520" />
              <mxPoint x="681" y="520" />
            </Array>
          </mxGeometry>
        </mxCell>
        <mxCell id="vRQ700bo3YF1591QnHRF-22" value="" style="endArrow=block;dashed=1;endFill=0;endSize=12;html=1;rounded=0;entryX=1;entryY=0;entryDx=0;entryDy=0;exitX=0.097;exitY=0.814;exitDx=0;exitDy=0;exitPerimeter=0;" edge="1" parent="1" source="vRQ700bo3YF1591QnHRF-8" target="4vqRBLgqxBnJ8twM-hPz-6">
          <mxGeometry width="160" relative="1" as="geometry">
            <mxPoint x="455" y="210" as="sourcePoint" />
            <mxPoint x="356" y="278" as="targetPoint" />
          </mxGeometry>
        </mxCell>
        <mxCell id="vRQ700bo3YF1591QnHRF-23" value="" style="endArrow=block;dashed=1;endFill=0;endSize=12;html=1;rounded=0;entryX=0.5;entryY=1;entryDx=0;entryDy=0;" edge="1" parent="1">
          <mxGeometry width="160" relative="1" as="geometry">
            <mxPoint x="279.5" y="180" as="sourcePoint" />
            <mxPoint x="279.5" y="120" as="targetPoint" />
          </mxGeometry>
        </mxCell>
        <mxCell id="vRQ700bo3YF1591QnHRF-24" value="&amp;lt;&amp;lt; extend&amp;gt;&amp;gt;" style="text;html=1;align=center;verticalAlign=middle;resizable=0;points=[];autosize=1;strokeColor=none;fillColor=none;" vertex="1" parent="1">
          <mxGeometry x="310" y="500" width="90" height="30" as="geometry" />
        </mxCell>
        <mxCell id="vRQ700bo3YF1591QnHRF-26" value="&amp;lt;&amp;lt; include&amp;gt;&amp;gt;" style="text;html=1;align=center;verticalAlign=middle;resizable=0;points=[];autosize=1;strokeColor=none;fillColor=none;" vertex="1" parent="1">
          <mxGeometry x="492.5" y="470" width="90" height="30" as="geometry" />
        </mxCell>
        <mxCell id="vRQ700bo3YF1591QnHRF-28" value="&amp;lt;&amp;lt; include&amp;gt;&amp;gt;" style="text;html=1;align=center;verticalAlign=middle;resizable=0;points=[];autosize=1;strokeColor=none;fillColor=none;" vertex="1" parent="1">
          <mxGeometry x="492.5" y="350" width="90" height="30" as="geometry" />
        </mxCell>
        <mxCell id="vRQ700bo3YF1591QnHRF-30" value="&amp;lt;&amp;lt; include&amp;gt;&amp;gt;" style="text;html=1;align=center;verticalAlign=middle;resizable=0;points=[];autosize=1;strokeColor=none;fillColor=none;" vertex="1" parent="1">
          <mxGeometry x="487.5" y="205" width="90" height="30" as="geometry" />
        </mxCell>
        <mxCell id="vRQ700bo3YF1591QnHRF-31" value="&amp;lt;&amp;lt; include&amp;gt;&amp;gt;" style="text;html=1;align=center;verticalAlign=middle;resizable=0;points=[];autosize=1;strokeColor=none;fillColor=none;" vertex="1" parent="1">
          <mxGeometry x="610" y="380" width="90" height="30" as="geometry" />
        </mxCell>
        <mxCell id="vRQ700bo3YF1591QnHRF-32" value="&amp;lt;&amp;lt; extend&amp;gt;&amp;gt;" style="text;html=1;align=center;verticalAlign=middle;resizable=0;points=[];autosize=1;strokeColor=none;fillColor=none;" vertex="1" parent="1">
          <mxGeometry x="650" y="490" width="90" height="30" as="geometry" />
        </mxCell>
        <mxCell id="vRQ700bo3YF1591QnHRF-34" value="&amp;lt;&amp;lt; include&amp;gt;&amp;gt;" style="text;html=1;align=center;verticalAlign=middle;resizable=0;points=[];autosize=1;strokeColor=none;fillColor=none;" vertex="1" parent="1">
          <mxGeometry x="470" y="605" width="90" height="30" as="geometry" />
        </mxCell>
        <mxCell id="vRQ700bo3YF1591QnHRF-35" value="&amp;lt;&amp;lt; include&amp;gt;&amp;gt;" style="text;html=1;align=center;verticalAlign=middle;resizable=0;points=[];autosize=1;strokeColor=none;fillColor=none;rotation=15;" vertex="1" parent="1">
          <mxGeometry x="300" y="670" width="90" height="30" as="geometry" />
        </mxCell>
        <mxCell id="vRQ700bo3YF1591QnHRF-36" value="&amp;lt;&amp;lt; include&amp;gt;&amp;gt;" style="text;html=1;align=center;verticalAlign=middle;resizable=0;points=[];autosize=1;strokeColor=none;fillColor=none;rotation=-45;" vertex="1" parent="1">
          <mxGeometry x="360" y="200" width="90" height="30" as="geometry" />
        </mxCell>
        <mxCell id="vRQ700bo3YF1591QnHRF-37" value="&amp;lt;&amp;lt; include&amp;gt;&amp;gt;" style="text;html=1;align=center;verticalAlign=middle;resizable=0;points=[];autosize=1;strokeColor=none;fillColor=none;rotation=0;" vertex="1" parent="1">
          <mxGeometry x="350" y="120" width="90" height="30" as="geometry" />
        </mxCell>
        <mxCell id="vRQ700bo3YF1591QnHRF-38" value="&amp;lt;&amp;lt; include&amp;gt;&amp;gt;" style="text;html=1;align=center;verticalAlign=middle;resizable=0;points=[];autosize=1;strokeColor=none;fillColor=none;rotation=0;" vertex="1" parent="1">
          <mxGeometry x="610" y="110" width="90" height="30" as="geometry" />
        </mxCell>
        <mxCell id="vRQ700bo3YF1591QnHRF-39" value="&amp;lt;&amp;lt; include&amp;gt;&amp;gt;" style="text;html=1;align=center;verticalAlign=middle;resizable=0;points=[];autosize=1;strokeColor=none;fillColor=none;rotation=0;" vertex="1" parent="1">
          <mxGeometry x="250" y="150" width="90" height="30" as="geometry" />
        </mxCell>
      </root>
    </mxGraphModel>
  </diagram>
</mxfile>
